<svg xmlns="http://www.w3.org/2000/svg" xmlns:xlink="http://www.w3.org/1999/xlink" width="866" height="866" viewBox="0 0 866 866">
  <defs>
    <clipPath id="clip-path">
      <circle id="Ellipse_881" data-name="Ellipse 881" cx="433" cy="433" r="433" transform="translate(15193 844)" fill="#fff"/>
    </clipPath>
  </defs>
  <g id="Group_387" data-name="Group 387" transform="translate(-15193 -844)">
    <circle id="Ellipse_880" data-name="Ellipse 880" cx="433" cy="433" r="433" transform="translate(15193 844)" fill="#fff"/>
    <g id="Group_386" data-name="Group 386" transform="translate(41 39)">
      <rect id="Rectangle_682" data-name="Rectangle 682" width="125.435" height="215.031" transform="translate(15378.96 1220.152)" fill="#19cced"/>
      <path id="Path_2377" data-name="Path 2377" d="M134.394,456.95H8.96A8.959,8.959,0,0,1,0,447.991V232.96A8.96,8.96,0,0,1,8.96,224H134.394a8.96,8.96,0,0,1,8.96,8.96V447.991A8.959,8.959,0,0,1,134.394,456.95ZM17.919,439.031H125.435V241.919H17.919V439.031Z" transform="translate(15370 987.192)" fill="#19cced"/>
      <path id="Path_2378" data-name="Path 2378" d="M160,379.718a92.856,92.856,0,0,0,53.758,17.919H379.511a31.287,31.287,0,0,0,21.5-54.116,31.162,31.162,0,0,0,17.92-53.758,31.162,31.162,0,0,0,10.752-58.793,35.839,35.839,0,0,0-18.815-66.283H285.435A286,286,0,0,0,303.354,84.05c0-33.6-29.119-62.718-44.8-62.718a46.852,46.852,0,0,0-26.879,8.96V93.01L177.919,209.485,160,218.445Z" transform="translate(15344.395 1019.626)" fill="#fff"/>
      <path id="Path_2379" data-name="Path 2379" d="M377.8,404.89H212.051a100.562,100.562,0,0,1-60.1-20.535,8.96,8.96,0,0,1-2.616-6.343V216.738a8.959,8.959,0,0,1,4.946-8.01l15.106-7.562L221.01,89.35V28.586a8.959,8.959,0,0,1,3.351-7.006,56.23,56.23,0,0,1,32.487-10.913c20.733,0,53.758,32.81,53.758,71.677a258.117,258.117,0,0,1-14.336,71.677H409.161a44.8,44.8,0,0,1,44.8,44.8,44.244,44.244,0,0,1-11.648,30.033,40.068,40.068,0,0,1-10.483,64.062,39.686,39.686,0,0,1,4.211,17.919,40.158,40.158,0,0,1-22.131,35.839,39.686,39.686,0,0,1,4.211,17.919A40.368,40.368,0,0,1,377.8,404.89ZM167.253,373.908a92.312,92.312,0,0,0,44.8,13.063H377.8a22.417,22.417,0,0,0,22.4-22.4,22.112,22.112,0,0,0-7.078-16.217,8.959,8.959,0,0,1,5.125-15.428A22.2,22.2,0,0,0,411.043,294.6a8.959,8.959,0,0,1,5.125-15.428,22.2,22.2,0,0,0,7.58-41.949,8.96,8.96,0,0,1-.591-15.59,26.879,26.879,0,0,0-14-49.69H283.727a8.959,8.959,0,0,1-8.368-12.149,278.6,278.6,0,0,0,17.328-77.447c0-29.352-26.019-53.758-35.839-53.758a37.743,37.743,0,0,0-17.919,4.856V91.3a9.053,9.053,0,0,1-.824,3.763L184.348,211.541a8.963,8.963,0,0,1-4.122,4.247l-12.973,6.487V373.908Z" transform="translate(15346.102 1021.333)" fill="#19cced"/>
    </g>
    <g id="Mask_Group_5" data-name="Mask Group 5" clip-path="url(#clip-path)">
      <path id="Path_2380" data-name="Path 2380" d="M-244.7-88.872-46.6-282.91,0-489.139,407.514-129.508,128.139,193.55Z" transform="translate(15656 1566)" opacity="0.01"/>
    </g>
  </g>
</svg>
