<?xml version="1.0" encoding="utf-8"?>
<!-- Generator: Adobe Illustrator 21.0.0, SVG Export Plug-In . SVG Version: 6.00 Build 0)  -->
<svg version="1.1" id="Layer_1" xmlns="http://www.w3.org/2000/svg" xmlns:xlink="http://www.w3.org/1999/xlink" x="0px" y="0px"
	 viewBox="0 0 953.4 165.7" style="enable-background:new 0 0 953.4 165.7;" xml:space="preserve">
<style type="text/css">
	.st0{fill:#8EC63F;}
	.st1{fill:#F17221;}
	.st2{fill:#01A9C3;}
	.st3{fill:#FFFFFF;}
</style>
<g>
	<g>
		<path class="st0" d="M712.3,2c22.2,0.2,41.1,8.1,56.9,23.9c15.7,15.8,23.6,34.7,23.6,56.9c0,22-7.9,41-23.6,56.9
			c-15.6,15.8-34.4,23.8-56.4,24H664c-4.1,0-7.6-1.4-10.4-4.3c-2.9-2.8-4.3-6.3-4.3-10.4v-0.1v-132v-0.2c0-4,1.4-7.5,4.3-10.4
			C656.5,3.4,659.9,2,664,2H712.3z M712.2,134.4c14.1-0.2,26.2-5.3,36.2-15.4c9.9-10.1,14.9-22.2,14.9-36.2c0-14.1-5-26.1-15-36.2
			c-10-10.1-22.1-15.2-36.1-15.3h-33.6v103.1H712.2z"/>
	</g>
	<g>
		<path class="st1" d="M83.2,78.4c14.4,9.5,20.9,23.6,19.6,42.3c-1,13.8-6.9,25-17.9,33.6C74,162.9,61,166.6,45.7,165.5
			c-14.1-1-25.9-6.2-35.2-15.6c-2.9-2.9-4.3-6.3-4.3-10.4c0.1-4,1.5-7.5,4.3-10.4c2.9-2.8,6.3-4.2,10.4-4.2c4.1,0,7.6,1.4,10.4,4.3
			c4.2,4.3,9.7,6.6,16.5,7.1c7.2,0.5,13.2-0.9,18-4.2c4.8-3.3,7.4-7.7,7.7-13.4c0.3-4.4-0.2-7.9-1.6-10.6c-1-2-2.6-3.7-4.8-5.1
			c-4.8-3.2-10.4-5-16.7-5.5C35,96.4,22.6,90.9,13,80.8C3.4,70.8-0.8,58.9,0.1,45.1C1.1,31.2,7.1,20,18,11.5
			C28.9,2.9,42-0.9,57.2,0.2C65,0.7,72,2.6,78.2,5.9c4.6,2.4,9.2,5.7,13.9,10.1c3,2.7,4.5,6.2,4.7,10.3c0.2,4-1.2,7.5-4,10.5
			c-2.7,3-6.1,4.5-10.1,4.6c-4.1,0.2-7.6-1.1-10.6-3.9c-5.2-4.9-10.9-7.6-16.9-8c-7.2-0.5-13.2,0.8-18,4.1
			c-4.8,3.3-7.4,7.9-7.7,13.6c-0.5,5.7,1.5,10.5,5.8,14.5c4.3,4,10,6.2,17.2,6.7h0.1C63.9,69.1,74.2,72.4,83.2,78.4z"/>
		<path class="st1" d="M152.4,155c-1.7,3.6-4.4,6.2-8.1,7.6c-3.8,1.4-7.6,1.3-11.3-0.3c-3.6-1.7-6.2-4.4-7.6-8.1
			c-1.4-3.8-1.3-7.6,0.3-11.3l59.7-132.4c2.4-5.7,6.8-8.5,13.3-8.5c6.5,0,11,2.8,13.3,8.5l59.7,132.4c1.7,3.7,1.8,7.5,0.3,11.3
			c-1.4,3.7-4,6.4-7.7,8.1c-3.6,1.7-7.4,1.8-11.2,0.3c-3.8-1.4-6.5-4-8.2-7.6l-8.8-19.7l-0.3,0.1h-0.2h-74.4L152.4,155z M223,106.1
			l-24.3-53.9l-24.3,53.9H223z"/>
		<path class="st2" d="M445.3,2.3c3.3,0.8,6,2.6,8.1,5.2c2.1,2.7,3.2,5.7,3.2,9.1V149c0,4.1-1.4,7.6-4.3,10.4
			c-2.8,2.9-6.3,4.3-10.4,4.3c-4,0-7.5-1.4-10.4-4.3c-2.8-2.8-4.2-6.3-4.2-10.4V78.6l-35.1,70.1c-0.4,0.8-0.8,1.5-1.1,2.2
			c-2.8,4.6-7,6.9-12.5,6.9c-5.4,0-9.5-2.3-12.4-6.9c-0.5-0.8-0.9-1.7-1.3-2.7l-34.9-69.5V149c0,4.1-1.4,7.6-4.3,10.4
			c-2.8,2.9-6.2,4.3-10.3,4.3c-4.1,0-7.6-1.4-10.4-4.3c-2.9-2.8-4.3-6.3-4.3-10.4V16.7c0-3.4,1.1-6.5,3.2-9.1
			c2.1-2.7,4.7-4.4,8.1-5.2c3.3-0.8,6.5-0.4,9.6,1c3.1,1.4,5.4,3.7,6.9,6.7l50.1,100.1l50.1-100.1c1.5-3,3.8-5.3,6.9-6.7
			C438.8,1.9,442,1.6,445.3,2.3z"/>
		<path class="st2" d="M615.1,4.2c3.4,2.2,5.6,5.3,6.5,9.2c0.9,3.9,0.3,7.6-1.8,11.1l-50.5,80.7V149c0,4.1-1.4,7.6-4.2,10.4
			c-2.9,2.9-6.3,4.3-10.4,4.3c-4,0-7.5-1.4-10.4-4.3c-2.9-2.8-4.3-6.3-4.3-10.4v-43.9l-50.4-80.7c-2.1-3.5-2.7-7.2-1.8-11.1
			c0.9-3.9,3.1-7,6.5-9.2c3.4-2.1,7.1-2.7,11.1-1.8c3.9,0.9,7,3.1,9.1,6.5l40.2,64.4L595,8.8c2.1-3.4,5.2-5.6,9.1-6.5
			C608,1.4,611.7,2,615.1,4.2z"/>
		<path class="st0" d="M832.7,155c-1.7,3.6-4.4,6.2-8.1,7.6c-3.8,1.4-7.6,1.3-11.3-0.3c-3.6-1.7-6.2-4.4-7.6-8.1
			c-1.4-3.8-1.3-7.6,0.3-11.3l59.7-132.4c2.4-5.7,6.8-8.5,13.3-8.5c6.5,0,11,2.8,13.3,8.5l59.7,132.4c1.7,3.7,1.8,7.5,0.3,11.3
			c-1.4,3.7-4,6.4-7.7,8.1c-3.6,1.7-7.4,1.8-11.2,0.3c-3.8-1.4-6.5-4-8.2-7.6l-8.8-19.7l-0.3,0.1H916h-74.4L832.7,155z M903.3,106.1
			l-24.3-53.9l-24.3,53.9H903.3z"/>
	</g>
	<ellipse class="st0" cx="713.8" cy="81.7" rx="55.3" ry="72.7"/>
	<circle class="st3" cx="747.7" cy="102.4" r="16"/>
	<circle class="st0" cx="747.7" cy="102.4" r="8"/>
	<circle class="st3" cx="706.7" cy="83.4" r="16"/>
	<circle class="st0" cx="706.7" cy="83.4" r="8"/>
	
		<ellipse transform="matrix(0.9996 -2.673550e-02 2.673550e-02 0.9996 -0.7889 18.7589)" class="st3" cx="701.1" cy="38.9" rx="16" ry="16"/>
	
		<ellipse transform="matrix(0.9996 -2.673550e-02 2.673550e-02 0.9996 -0.7889 18.7589)" class="st0" cx="701.1" cy="38.9" rx="8" ry="8"/>
	<path class="st3" d="M694.7,50.5l-5.8-9.5c-0.1-0.1-0.2-0.2-0.3-0.2l-39.3,23.9v14l45.4-27.9C694.8,50.7,694.8,50.6,694.7,50.5z"/>
	<path class="st3" d="M698.7,95.3l-5.6-9.7c-0.1-0.1-0.2-0.2-0.3-0.2l-43.5,24.9v13.8l49.3-28.5C698.8,95.6,698.8,95.4,698.7,95.3z"
		/>
	<path class="st3" d="M655,160.6l1.9,1.4l82.7-47.8c0.1-0.1,0.2-0.2,0.1-0.4l-5.6-9.7c-0.1-0.1-0.2-0.2-0.4-0.1l-84.3,48.4l2.2,5"/>
</g>
</svg>
