<?xml version="1.0" encoding="utf-8"?>
<!-- Generator: Adobe Illustrator 22.1.0, SVG Export Plug-In . SVG Version: 6.00 Build 0)  -->
<svg version="1.1" id="Layer_1" xmlns="http://www.w3.org/2000/svg" xmlns:xlink="http://www.w3.org/1999/xlink" x="0px" y="0px"
	 viewBox="0 0 50 50" style="enable-background:new 0 0 50 50;" xml:space="preserve">
<style type="text/css">
	.st0{fill:#19CCED;}
</style>
<g id="fashion-beauty-icon" transform="translate(-471.702 -474.903)">
	<g id="Group_8" transform="translate(471.702 474.903)">
		<g id="Group_3">
			<path id="Path_2" class="st0" d="M16.4,24.8c-2.3,0-4.4-0.9-6-2.5c-3.3-3.2-3.3-8.4-0.1-11.7c0.2-0.2,0.4-0.4,0.6-0.6
				c1.9-1.6,4.5-2.3,7-1.9l16.9,3c0.5,0.1,0.8,0.5,0.8,1v8.6c0,0.5-0.3,0.9-0.8,1c-4.1,0.7-7.2,1.3-9.6,1.7c-8,1.4-8,1.4-8.5,1.4
				L16.4,24.8L16.4,24.8z M16.4,10c-1.6,0-3.1,0.6-4.2,1.5c-2.7,2.2-3,6.1-0.8,8.8c0.1,0.2,0.3,0.3,0.5,0.5c1.3,1.2,3,1.9,4.7,1.9
				h0.1c0.4,0,0.5,0,8.2-1.4l8.8-1.6v-6.9l-16.1-2.8C17.2,10,16.8,10,16.4,10L16.4,10z"/>
		</g>
		<g id="Group_4" transform="translate(5.417 5.241)">
			<path id="Path_3" class="st0" d="M11,14.3c-1.7,0-3.1-1.4-3.1-3.1S9.3,8,11,8s3.1,1.4,3.1,3.1c0,0,0,0,0,0
				C14.2,12.9,12.8,14.3,11,14.3z M11,10c-0.6,0-1.1,0.5-1.1,1.1c0,0.6,0.5,1.1,1.1,1.1c0.6,0,1.1-0.5,1.1-1.1l0,0
				C12.2,10.5,11.7,10,11,10L11,10z"/>
		</g>
		<g id="Group_5" transform="translate(25.75 0.961)">
			<path id="Path_4" class="st0" d="M15.4,22.8c-0.1,0-0.2,0-0.3,0l-6.5-2.1c-0.4-0.1-0.7-0.5-0.7-1v-8.6c0-0.4,0.3-0.8,0.7-1
				L15.1,8c0.5-0.2,1.1,0.1,1.3,0.6c0,0.1,0.1,0.2,0.1,0.3v12.8C16.4,22.4,15.9,22.8,15.4,22.8L15.4,22.8z M9.9,19l4.5,1.5V10.4
				l-4.5,1.5V19z"/>
		</g>
		<g id="Group_6" transform="translate(7.631 13.937)">
			<path id="Path_5" class="st0" d="M13.2,22.7c-1.8,0-3.3-1.3-3.6-3L7.9,10C7.8,9.5,8.2,8.9,8.7,8.8c0.1,0,0.1,0,0.2,0
				c1-0.1,2-0.2,3-0.4L13.9,8c0.5-0.1,1.1,0.3,1.2,0.8c0,0,0,0,0,0l1.7,9.6c0.3,2-1,3.9-3,4.2C13.6,22.7,13.4,22.7,13.2,22.7
				L13.2,22.7z M10.1,10.7l1.5,8.6c0.2,0.9,1,1.5,1.9,1.3c0.9-0.2,1.5-1,1.3-1.9l-1.5-8.6l-1.1,0.2C11.1,10.6,10.5,10.7,10.1,10.7
				L10.1,10.7z"/>
		</g>
		<g id="Group_7" transform="translate(12.373 20.758)">
			<path id="Path_6" class="st0" d="M14.2,21.2c-3.5,0-6.4-2.8-6.4-6.3c0,0,0,0,0,0c0-0.6,0.4-1,1-1c0.6,0,1,0.4,1,1
				c0,2.4,1.9,4.4,4.3,4.4c0,0,0,0,0,0h0c2.4,0,4.3-2,4.3-4.4v-3.4C18.6,9.5,20.1,8,22,8c1.9,0,3.4,1.5,3.4,3.4v8.8c0,0.6-0.4,1-1,1
				c-0.6,0-1-0.4-1-1v-8.8c0-0.8-0.6-1.4-1.4-1.4c-0.8,0-1.4,0.6-1.4,1.4v3.4C20.6,18.3,17.8,21.2,14.2,21.2L14.2,21.2z"/>
		</g>
	</g>
</g>
</svg>
