<?xml version="1.0" encoding="utf-8"?>
<!-- Generator: Adobe Illustrator 22.1.0, SVG Export Plug-In . SVG Version: 6.00 Build 0)  -->
<svg version="1.1" id="Layer_1" xmlns="http://www.w3.org/2000/svg" xmlns:xlink="http://www.w3.org/1999/xlink" x="0px" y="0px"
	 viewBox="0 0 50 50" style="enable-background:new 0 0 50 50;" xml:space="preserve">
<style type="text/css">
	.st0{fill:#19CCED;}
</style>
<g id="food-drink-icon" transform="translate(-337.374 -602.579)">
	<g id="Group_13" transform="translate(337.374 636.861)">
		<g id="Group_12" transform="translate(0 0)">
			<path id="Path_8" class="st0" d="M45.9,5.6C45.7,5.2,45.4,5,45,5H3.1c-0.5,0-1,0.4-1,1c0,0.3,0.1,0.5,0.3,0.7l2.1,2.1
				c1.2,1.3,2.9,2,4.7,2h29.5c1.8,0,3.5-0.7,4.7-2l2.1-2.1C45.9,6.4,46,5.9,45.9,5.6z M42.2,7.4c-0.9,0.9-2.1,1.4-3.4,1.4H9.3
				C8,8.8,6.8,8.3,5.9,7.4L5.4,6.9h37.3L42.2,7.4z"/>
		</g>
	</g>
	<g id="Group_24" transform="translate(343.086 602.579)">
		<g id="Group_15" transform="translate(0 15.236)">
			<g id="Group_14">
				<path id="Path_9" class="st0" d="M31.7,5H5C3.4,5,2.1,6.3,2.1,7.9v1.9c0,6.8,3.8,13,9.8,16.1c0.5,0.3,1,0.1,1.3-0.4
					c0.3-0.5,0.1-1-0.4-1.3c0,0,0,0,0,0C7.4,21.4,4,15.8,4.1,9.8V7.9c0-0.5,0.4-1,1-1c0,0,0,0,0,0h26.7c0.5,0,1,0.4,1,1l0,0v1.9
					c0,6.1-3.4,11.6-8.8,14.4c-0.5,0.2-0.7,0.8-0.4,1.3c0.2,0.3,0.5,0.5,0.8,0.5c0.2,0,0.3,0,0.4-0.1c6-3.1,9.8-9.3,9.8-16.1V7.9
					C34.5,6.3,33.2,5,31.7,5z"/>
			</g>
		</g>
		<g id="Group_17" transform="translate(25.991 19.041)">
			<g id="Group_16">
				<path id="Path_10" class="st0" d="M14.3,5.7C11.7,4,7.6,5.8,7.2,6C6.7,6.3,6.5,6.8,6.7,7.3C6.9,7.8,7.5,8,8,7.8
					c0.9-0.4,3.9-1.4,5.3-0.5c0.7,0.6,1.1,1.5,1,2.5c0,3.8-7.7,6.1-10.7,6.7l-0.7,0.1c-0.5,0.1-0.8,0.6-0.7,1.1
					c0.1,0.4,0.5,0.8,0.9,0.8c0.1,0,0.1,0,0.2,0l0.7-0.1c0.5-0.1,12.2-2.4,12.2-8.6C16.3,8.2,15.6,6.6,14.3,5.7z"/>
			</g>
		</g>
		<g id="Group_19" transform="translate(20.953)">
			<g id="Group_18">
				<path id="Path_11" class="st0" d="M4.8,12.3c1.5-2,1.5-4.9,0-6.9C4.5,5,3.9,4.9,3.5,5.2C3.1,5.6,3,6.1,3.3,6.6
					c1,1.3,1,3.2,0,4.5c-1.6,2-1.6,4.9,0,6.9c0.3,0.4,0.9,0.5,1.3,0.2c0.4-0.3,0.5-0.9,0.2-1.3c0,0,0,0,0,0
					C3.8,15.4,3.8,13.6,4.8,12.3z"/>
			</g>
		</g>
		<g id="Group_21" transform="translate(15.233 0.001)">
			<g id="Group_20">
				<path id="Path_12" class="st0" d="M4.8,12.3c1.6-2,1.6-4.9,0-6.9C4.5,4.9,3.9,4.9,3.5,5.2S3,6.1,3.3,6.5l0,0c1,1.3,1,3.2,0,4.5
					c-1.5,2-1.5,4.9,0,6.9c0.3,0.4,0.9,0.5,1.3,0.2c0.4-0.3,0.5-0.9,0.2-1.3c0,0,0,0,0,0C3.8,15.4,3.8,13.6,4.8,12.3z"/>
			</g>
		</g>
		<g id="Group_23" transform="translate(9.525 0.002)">
			<g id="Group_22">
				<path id="Path_13" class="st0" d="M4.8,12.3c1.5-2,1.5-4.9,0-6.9C4.5,5,3.9,4.9,3.5,5.2C3,5.5,3,6.1,3.3,6.5c1,1.3,1,3.2,0,4.5
					c-1.6,2-1.6,4.9,0,6.9c0.3,0.4,0.9,0.5,1.3,0.1c0.4-0.3,0.5-0.9,0.1-1.3C3.8,15.4,3.8,13.6,4.8,12.3z"/>
			</g>
		</g>
	</g>
</g>
</svg>
