<?xml version="1.0" encoding="utf-8"?>
<!-- Generator: Adobe Illustrator 22.1.0, SVG Export Plug-In . SVG Version: 6.00 Build 0)  -->
<svg version="1.1" id="Layer_1" xmlns="http://www.w3.org/2000/svg" xmlns:xlink="http://www.w3.org/1999/xlink" x="0px" y="0px"
	 viewBox="0 0 50 50" style="enable-background:new 0 0 50 50;" xml:space="preserve">
<style type="text/css">
	.st0{fill:#19CCED;}
</style>
<g id="home-lifestyle-icon" transform="translate(-628.795 -151.409)">
	<path id="Path_22" class="st0" d="M672,175l-14.4-14.4c-2.1-2.1-5.5-2.1-7.6,0L635.5,175c-0.5,0.5-0.5,1.2,0,1.6s1.2,0.5,1.6,0
		l0.9-0.9v14.8c0,1.8,1.5,3.3,3.3,3.3h24.7c1.8,0,3.3-1.5,3.3-3.3v-14.8l0.9,0.9c0.5,0.5,1.2,0.5,1.6,0
		C672.5,176.2,672.5,175.5,672,175L672,175L672,175z M650.3,191.5v-9.1c0-0.7,0.6-1.3,1.3-1.3h4.4c0.7,0,1.3,0.6,1.3,1.3v9.1H650.3z
		 M667.2,190.5c0,0.6-0.5,1-1,1h-6.5v-9.1c0-2-1.6-3.6-3.6-3.6h-4.4c-2,0-3.6,1.6-3.6,3.6v9.1h-6.5c-0.6,0-1-0.5-1-1v-17.1
		l11.2-11.2c1.2-1.2,3.1-1.2,4.3,0l11.2,11.2L667.2,190.5z"/>
</g>
</svg>
