<?xml version="1.0" encoding="utf-8"?>
<!-- Generator: Adobe Illustrator 22.1.0, SVG Export Plug-In . SVG Version: 6.00 Build 0)  -->
<svg version="1.1" id="Layer_1" xmlns="http://www.w3.org/2000/svg" xmlns:xlink="http://www.w3.org/1999/xlink" x="0px" y="0px"
	 viewBox="0 0 50 50" style="enable-background:new 0 0 50 50;" xml:space="preserve">
<style type="text/css">
	.st0{fill:#19CCED;}
</style>
<g id="music-icon" transform="translate(-107.629 -121.24)">
	<g id="Group_1" transform="translate(107.629 121.24)">
		<path id="Path_1" class="st0" d="M41.7,8.1c-0.3-0.2-0.6-0.3-1-0.3l-22.1,2.4c-0.6,0.1-1.1,0.6-1.1,1.2v21.8c-1.1-0.7-2.4-1-3.7-1
			c-3.4,0-6.1,2.2-6.1,4.9s2.7,4.9,6.1,4.9s6.1-2.2,6.1-4.9V18.7l19.6-2.2v14.3c-1.1-0.7-2.4-1-3.7-1c-3.4,0-6.1,2.2-6.1,4.9
			s2.8,4.9,6.1,4.9s6.1-2.2,6.1-4.9V9.1C42.2,8.7,42,8.4,41.7,8.1z M14,39.7c-2,0-3.7-1.1-3.7-2.5s1.7-2.5,3.7-2.5s3.7,1.1,3.7,2.5
			S16,39.7,14,39.7L14,39.7z M36,37.3c-2,0-3.7-1.1-3.7-2.5s1.7-2.5,3.7-2.5s3.7,1.1,3.7,2.5S38,37.3,36,37.3L36,37.3z M39.7,14.1
			l-19.6,2.2v-3.7l19.6-2.2V14.1z"/>
	</g>
</g>
</svg>
