<?xml version="1.0" encoding="utf-8"?>
<!-- Generator: Adobe Illustrator 22.1.0, SVG Export Plug-In . SVG Version: 6.00 Build 0)  -->
<svg version="1.1" id="Layer_1" xmlns="http://www.w3.org/2000/svg" xmlns:xlink="http://www.w3.org/1999/xlink" x="0px" y="0px"
	 viewBox="0 0 50 50" style="enable-background:new 0 0 50 50;" xml:space="preserve">
<style type="text/css">
	.st0{fill:#19CCED;}
</style>
<g id="sports-fitness-icon" transform="translate(-471.702 -637.365)">
	<g id="Group_27" transform="translate(471.702 637.365)">
		<path id="Path_21" class="st0" d="M44.8,16.1h-2c-0.3,0-0.7,0.1-1,0.2v-3.1c0-1.6-1.3-3-3-3h-2c-1.6,0-3,1.3-3,3v6.9H16.1v-6.9
			c0-1.6-1.3-3-3-3h-2c-1.6,0-3,1.3-3,3v3.1c-0.3-0.1-0.7-0.2-1-0.2h-2c-1.6,0-3,1.3-3,3v11.9c0,1.6,1.3,3,3,3h2
			c0.3,0,0.7-0.1,1-0.2v3.1c0,1.6,1.3,3,3,3h2c1.6,0,3-1.3,3-3v-6.9h17.8v6.9c0,1.6,1.3,3,3,3h2c1.6,0,3-1.3,3-3v-3.1
			c0.3,0.1,0.7,0.2,1,0.2h2c1.6,0,3-1.3,3-3V19.1C47.7,17.4,46.4,16.1,44.8,16.1z M8.2,30.9c0,0.5-0.4,1-1,1h-2c-0.5,0-1-0.4-1-1
			V19.1c0-0.5,0.4-1,1-1h2c0.5,0,1,0.4,1,1V30.9z M14.1,36.9c0,0.5-0.4,1-1,1h-2c-0.5,0-1-0.4-1-1V13.1c0-0.5,0.4-1,1-1h2
			c0.5,0,1,0.4,1,1V36.9z M33.9,28H16.1V22h17.8V28z M39.8,19.1v17.8c0,0.5-0.4,1-1,1h-2c-0.5,0-1-0.4-1-1V13.1c0-0.5,0.4-1,1-1h2
			c0.5,0,1,0.4,1,1V19.1z M45.7,30.9c0,0.5-0.4,1-1,1h-2c-0.5,0-1-0.4-1-1V19.1c0-0.5,0.4-1,1-1h2c0.5,0,1,0.4,1,1V30.9z"/>
	</g>
</g>
</svg>
